# xmcd
#
# Track frame offsets: 
#        150
#        22020
#        42556
#        59721
#        71508
#        95095
#        122860
#        143445
#        167523
#        181438
#        198073
#        214007
#        229070
#        244759
#        264387
#        278789
#        292001
#        314640
#        335913
#
# Disc length: 4780 seconds
#
# Revision: 0
# Processed by: cddbd v1.5.2PL0 Copyright (c) Steve Scherf et al.
# Submitted via: ExactAudioCopy v0.99pb5
#
DISCID=2d12aa13
DTITLE=George Thorogood - The Best
DYEAR=2009
DGENRE=Blues
TTITLE0=Bad To The Bone
TTITLE1=I Drink Alone
TTITLE2=Hello Little Girl
TTITLE3=That's It, I Quit
TTITLE4=Howlin' For My Baby
TTITLE5=Killer's Bluze
TTITLE6=You Talk Too Much
TTITLE7=Johnny B. Goode
TTITLE8=House Of Blue Lights
TTITLE9=Jail Bait
TTITLE10=Treat Her Right
TTITLE11=I'm Ready
TTITLE12=Back to Wentzville
TTITLE13=Goodbye Baby
TTITLE14=Double Shot
TTITLE15=Cocaine Blues
TTITLE16=Highway 49
TTITLE17=Blue Highway
TTITLE18=As the Years Go Passing By
EXTD=
EXTT0=
EXTT1=
EXTT2=
EXTT3=
EXTT4=
EXTT5=
EXTT6=
EXTT7=
EXTT8=
EXTT9=
EXTT10=
EXTT11=
EXTT12=
EXTT13=
EXTT14=
EXTT15=
EXTT16=
EXTT17=
EXTT18=
PLAYORDER=
